<mxfile host="app.diagrams.net" modified="2023-12-20T09:00:44.751Z" agent="Mozilla/5.0 (Windows NT 10.0; Win64; x64) AppleWebKit/537.36 (KHTML, like Gecko) Chrome/120.0.0.0 Safari/537.36" etag="C8lqJwiYNIwj9EDgoUJ1" version="22.1.11" type="github">
  <diagram name="Page-1" id="T36eju5By-tqYhYQg0Z2">
    <mxGraphModel dx="825" dy="432" grid="1" gridSize="10" guides="1" tooltips="1" connect="1" arrows="1" fold="1" page="1" pageScale="1" pageWidth="850" pageHeight="1100" math="0" shadow="0">
      <root>
        <mxCell id="0" />
        <mxCell id="1" parent="0" />
        <mxCell id="Hg_f1LFbzUgzckaS3RzL-4" value="" style="edgeStyle=orthogonalEdgeStyle;rounded=0;orthogonalLoop=1;jettySize=auto;html=1;" parent="1" source="Hg_f1LFbzUgzckaS3RzL-1" target="Hg_f1LFbzUgzckaS3RzL-3" edge="1">
          <mxGeometry relative="1" as="geometry" />
        </mxCell>
        <mxCell id="Hg_f1LFbzUgzckaS3RzL-1" value="Begin" style="strokeWidth=2;html=1;shape=mxgraph.flowchart.terminator;whiteSpace=wrap;" parent="1" vertex="1">
          <mxGeometry x="165" y="40" width="100" height="60" as="geometry" />
        </mxCell>
        <mxCell id="Hg_f1LFbzUgzckaS3RzL-6" value="" style="edgeStyle=orthogonalEdgeStyle;rounded=0;orthogonalLoop=1;jettySize=auto;html=1;" parent="1" source="Hg_f1LFbzUgzckaS3RzL-3" target="Hg_f1LFbzUgzckaS3RzL-5" edge="1">
          <mxGeometry relative="1" as="geometry" />
        </mxCell>
        <mxCell id="Hg_f1LFbzUgzckaS3RzL-3" value="Get Vehicle Type" style="shape=process;whiteSpace=wrap;html=1;backgroundOutline=1;" parent="1" vertex="1">
          <mxGeometry x="155" y="150" width="120" height="60" as="geometry" />
        </mxCell>
        <mxCell id="Hg_f1LFbzUgzckaS3RzL-8" value="" style="edgeStyle=orthogonalEdgeStyle;rounded=0;orthogonalLoop=1;jettySize=auto;html=1;" parent="1" source="BbHm2kyEShkEgUKEUJJQ-3" target="Hg_f1LFbzUgzckaS3RzL-7" edge="1">
          <mxGeometry relative="1" as="geometry" />
        </mxCell>
        <mxCell id="Hg_f1LFbzUgzckaS3RzL-5" value="Input Hour in, &lt;br&gt;Minute in, Hour out&lt;br&gt;and Minute out&amp;nbsp;" style="shape=parallelogram;perimeter=parallelogramPerimeter;whiteSpace=wrap;html=1;fixedSize=1;" parent="1" vertex="1">
          <mxGeometry x="140" y="260" width="150" height="80" as="geometry" />
        </mxCell>
        <mxCell id="Hg_f1LFbzUgzckaS3RzL-20" value="True" style="edgeStyle=orthogonalEdgeStyle;rounded=0;orthogonalLoop=1;jettySize=auto;html=1;" parent="1" source="Hg_f1LFbzUgzckaS3RzL-7" target="Hg_f1LFbzUgzckaS3RzL-19" edge="1">
          <mxGeometry relative="1" as="geometry" />
        </mxCell>
        <mxCell id="BbHm2kyEShkEgUKEUJJQ-13" value="" style="edgeStyle=orthogonalEdgeStyle;rounded=0;orthogonalLoop=1;jettySize=auto;html=1;" edge="1" parent="1" source="Hg_f1LFbzUgzckaS3RzL-7" target="BbHm2kyEShkEgUKEUJJQ-11">
          <mxGeometry relative="1" as="geometry" />
        </mxCell>
        <mxCell id="Hg_f1LFbzUgzckaS3RzL-7" value="IF HourIN &amp;lt; 0&lt;br&gt;or MinutesIN &amp;lt; 0 &lt;br&gt;or MinutesIn &amp;gt; 60 &lt;br&gt;or HoursOut &amp;lt; 0&lt;br&gt;or outMinutes &amp;lt; 0 &lt;br&gt;or outMinutes &amp;gt; 60" style="rhombus;whiteSpace=wrap;html=1;" parent="1" vertex="1">
          <mxGeometry x="110" y="690" width="210" height="220" as="geometry" />
        </mxCell>
        <mxCell id="Hg_f1LFbzUgzckaS3RzL-17" value="" style="edgeStyle=orthogonalEdgeStyle;rounded=0;orthogonalLoop=1;jettySize=auto;html=1;entryX=0.5;entryY=0;entryDx=0;entryDy=0;" parent="1" source="Hg_f1LFbzUgzckaS3RzL-9" target="Hg_f1LFbzUgzckaS3RzL-12" edge="1">
          <mxGeometry relative="1" as="geometry">
            <mxPoint x="217.5" y="1256.25" as="targetPoint" />
          </mxGeometry>
        </mxCell>
        <mxCell id="Hg_f1LFbzUgzckaS3RzL-9" value="Get Parking Time" style="shape=process;whiteSpace=wrap;html=1;backgroundOutline=1;" parent="1" vertex="1">
          <mxGeometry x="155" y="1150" width="120" height="60" as="geometry" />
        </mxCell>
        <mxCell id="Hg_f1LFbzUgzckaS3RzL-23" value="" style="edgeStyle=orthogonalEdgeStyle;rounded=0;orthogonalLoop=1;jettySize=auto;html=1;entryX=0.5;entryY=0;entryDx=0;entryDy=0;" parent="1" source="Hg_f1LFbzUgzckaS3RzL-12" target="BbHm2kyEShkEgUKEUJJQ-5" edge="1">
          <mxGeometry relative="1" as="geometry">
            <mxPoint x="217.4999999999999" y="1366.25" as="targetPoint" />
          </mxGeometry>
        </mxCell>
        <mxCell id="Hg_f1LFbzUgzckaS3RzL-28" value="TRUE" style="edgeLabel;html=1;align=center;verticalAlign=middle;resizable=0;points=[];" parent="Hg_f1LFbzUgzckaS3RzL-23" vertex="1" connectable="0">
          <mxGeometry x="-0.2066" y="2" relative="1" as="geometry">
            <mxPoint as="offset" />
          </mxGeometry>
        </mxCell>
        <mxCell id="Hg_f1LFbzUgzckaS3RzL-12" value="If parkingMinutes &amp;gt;=60" style="rhombus;whiteSpace=wrap;html=1;" parent="1" vertex="1">
          <mxGeometry x="145" y="1250" width="140" height="90" as="geometry" />
        </mxCell>
        <mxCell id="Hg_f1LFbzUgzckaS3RzL-30" value="" style="edgeStyle=orthogonalEdgeStyle;rounded=0;orthogonalLoop=1;jettySize=auto;html=1;" parent="1" source="Hg_f1LFbzUgzckaS3RzL-19" target="Hg_f1LFbzUgzckaS3RzL-29" edge="1">
          <mxGeometry relative="1" as="geometry" />
        </mxCell>
        <mxCell id="Hg_f1LFbzUgzckaS3RzL-19" value="&quot;Invalid parking times. &lt;br&gt;Please enter valid &lt;br&gt;hours and minutes.&quot;" style="shape=parallelogram;perimeter=parallelogramPerimeter;whiteSpace=wrap;html=1;fixedSize=1;" parent="1" vertex="1">
          <mxGeometry x="365" y="760" width="155" height="80" as="geometry" />
        </mxCell>
        <mxCell id="Hg_f1LFbzUgzckaS3RzL-25" value="" style="edgeStyle=orthogonalEdgeStyle;rounded=0;orthogonalLoop=1;jettySize=auto;html=1;exitX=0.5;exitY=1;exitDx=0;exitDy=0;" parent="1" source="BbHm2kyEShkEgUKEUJJQ-5" target="Hg_f1LFbzUgzckaS3RzL-24" edge="1">
          <mxGeometry relative="1" as="geometry">
            <mxPoint x="204.98275862068965" y="1510" as="sourcePoint" />
          </mxGeometry>
        </mxCell>
        <mxCell id="Hg_f1LFbzUgzckaS3RzL-24" value="&lt;font style=&quot;font-size: 21px;&quot;&gt;A&lt;/font&gt;" style="ellipse;whiteSpace=wrap;html=1;aspect=fixed;" parent="1" vertex="1">
          <mxGeometry x="190" y="1540" width="50" height="50" as="geometry" />
        </mxCell>
        <mxCell id="Hg_f1LFbzUgzckaS3RzL-29" value="Return 1" style="strokeWidth=2;html=1;shape=mxgraph.flowchart.terminator;whiteSpace=wrap;" parent="1" vertex="1">
          <mxGeometry x="392.5" y="880" width="100" height="60" as="geometry" />
        </mxCell>
        <mxCell id="Hg_f1LFbzUgzckaS3RzL-35" value="" style="edgeStyle=orthogonalEdgeStyle;rounded=0;orthogonalLoop=1;jettySize=auto;html=1;" parent="1" source="Hg_f1LFbzUgzckaS3RzL-31" target="Hg_f1LFbzUgzckaS3RzL-34" edge="1">
          <mxGeometry relative="1" as="geometry" />
        </mxCell>
        <mxCell id="Hg_f1LFbzUgzckaS3RzL-31" value="&lt;font style=&quot;font-size: 21px;&quot;&gt;A&lt;/font&gt;" style="ellipse;whiteSpace=wrap;html=1;aspect=fixed;" parent="1" vertex="1">
          <mxGeometry x="1035" y="78.75" width="50" height="50" as="geometry" />
        </mxCell>
        <mxCell id="Hg_f1LFbzUgzckaS3RzL-38" value="" style="edgeStyle=orthogonalEdgeStyle;rounded=0;orthogonalLoop=1;jettySize=auto;html=1;" parent="1" source="Hg_f1LFbzUgzckaS3RzL-34" target="Hg_f1LFbzUgzckaS3RzL-37" edge="1">
          <mxGeometry relative="1" as="geometry" />
        </mxCell>
        <mxCell id="Hg_f1LFbzUgzckaS3RzL-39" value="TRUE" style="edgeLabel;html=1;align=center;verticalAlign=middle;resizable=0;points=[];" parent="Hg_f1LFbzUgzckaS3RzL-38" vertex="1" connectable="0">
          <mxGeometry x="-0.7543" y="1" relative="1" as="geometry">
            <mxPoint x="-1" y="15" as="offset" />
          </mxGeometry>
        </mxCell>
        <mxCell id="Hg_f1LFbzUgzckaS3RzL-34" value="If roundedHours =&lt;br style=&quot;border-color: var(--border-color);&quot;&gt;(parkingMinutes &amp;gt;= 30)&amp;nbsp;" style="rhombus;whiteSpace=wrap;html=1;" parent="1" vertex="1">
          <mxGeometry x="980" y="148.75" width="160" height="140" as="geometry" />
        </mxCell>
        <mxCell id="Hg_f1LFbzUgzckaS3RzL-68" value="" style="edgeStyle=orthogonalEdgeStyle;rounded=0;orthogonalLoop=1;jettySize=auto;html=1;" parent="1" source="Hg_f1LFbzUgzckaS3RzL-37" target="Hg_f1LFbzUgzckaS3RzL-43" edge="1">
          <mxGeometry relative="1" as="geometry" />
        </mxCell>
        <mxCell id="Hg_f1LFbzUgzckaS3RzL-37" value="parkingHours += 1&amp;nbsp;" style="rounded=0;whiteSpace=wrap;html=1;" parent="1" vertex="1">
          <mxGeometry x="1000" y="328.75" width="120" height="60" as="geometry" />
        </mxCell>
        <mxCell id="Hg_f1LFbzUgzckaS3RzL-46" value="" style="edgeStyle=orthogonalEdgeStyle;rounded=0;orthogonalLoop=1;jettySize=auto;html=1;" parent="1" source="Hg_f1LFbzUgzckaS3RzL-43" target="Hg_f1LFbzUgzckaS3RzL-45" edge="1">
          <mxGeometry relative="1" as="geometry" />
        </mxCell>
        <mxCell id="Hg_f1LFbzUgzckaS3RzL-43" value="Switch Vehicle Type" style="rounded=0;whiteSpace=wrap;html=1;" parent="1" vertex="1">
          <mxGeometry x="1000" y="438.75" width="120" height="60" as="geometry" />
        </mxCell>
        <mxCell id="Hg_f1LFbzUgzckaS3RzL-48" value="" style="edgeStyle=orthogonalEdgeStyle;rounded=0;orthogonalLoop=1;jettySize=auto;html=1;" parent="1" source="Hg_f1LFbzUgzckaS3RzL-45" target="Hg_f1LFbzUgzckaS3RzL-47" edge="1">
          <mxGeometry relative="1" as="geometry" />
        </mxCell>
        <mxCell id="Hg_f1LFbzUgzckaS3RzL-49" value="True" style="edgeLabel;html=1;align=center;verticalAlign=middle;resizable=0;points=[];" parent="Hg_f1LFbzUgzckaS3RzL-48" vertex="1" connectable="0">
          <mxGeometry x="0.3035" relative="1" as="geometry">
            <mxPoint x="-10" as="offset" />
          </mxGeometry>
        </mxCell>
        <mxCell id="Hg_f1LFbzUgzckaS3RzL-70" value="" style="edgeStyle=orthogonalEdgeStyle;rounded=0;orthogonalLoop=1;jettySize=auto;html=1;" parent="1" source="Hg_f1LFbzUgzckaS3RzL-45" target="Hg_f1LFbzUgzckaS3RzL-69" edge="1">
          <mxGeometry relative="1" as="geometry" />
        </mxCell>
        <mxCell id="Hg_f1LFbzUgzckaS3RzL-86" value="FALSE" style="edgeLabel;html=1;align=center;verticalAlign=middle;resizable=0;points=[];" parent="Hg_f1LFbzUgzckaS3RzL-70" vertex="1" connectable="0">
          <mxGeometry x="-0.2067" y="3" relative="1" as="geometry">
            <mxPoint as="offset" />
          </mxGeometry>
        </mxCell>
        <mxCell id="Hg_f1LFbzUgzckaS3RzL-45" value="case &#39;c&#39;" style="rhombus;whiteSpace=wrap;html=1;" parent="1" vertex="1">
          <mxGeometry x="1012.5" y="538.75" width="95" height="90" as="geometry" />
        </mxCell>
        <mxCell id="Hg_f1LFbzUgzckaS3RzL-52" value="" style="edgeStyle=orthogonalEdgeStyle;rounded=0;orthogonalLoop=1;jettySize=auto;html=1;" parent="1" source="Hg_f1LFbzUgzckaS3RzL-61" target="Hg_f1LFbzUgzckaS3RzL-51" edge="1">
          <mxGeometry relative="1" as="geometry" />
        </mxCell>
        <mxCell id="Hg_f1LFbzUgzckaS3RzL-60" value="TRUE" style="edgeLabel;html=1;align=center;verticalAlign=middle;resizable=0;points=[];" parent="Hg_f1LFbzUgzckaS3RzL-52" vertex="1" connectable="0">
          <mxGeometry x="0.0666" y="1" relative="1" as="geometry">
            <mxPoint as="offset" />
          </mxGeometry>
        </mxCell>
        <mxCell id="Hg_f1LFbzUgzckaS3RzL-57" value="" style="edgeStyle=orthogonalEdgeStyle;rounded=0;orthogonalLoop=1;jettySize=auto;html=1;" parent="1" source="Hg_f1LFbzUgzckaS3RzL-47" target="Hg_f1LFbzUgzckaS3RzL-56" edge="1">
          <mxGeometry relative="1" as="geometry">
            <Array as="points">
              <mxPoint x="1325" y="583.75" />
              <mxPoint x="1325" y="508.75" />
            </Array>
          </mxGeometry>
        </mxCell>
        <mxCell id="Hg_f1LFbzUgzckaS3RzL-59" value="FALSE" style="edgeLabel;html=1;align=center;verticalAlign=middle;resizable=0;points=[];" parent="Hg_f1LFbzUgzckaS3RzL-57" vertex="1" connectable="0">
          <mxGeometry x="-0.1391" y="2" relative="1" as="geometry">
            <mxPoint as="offset" />
          </mxGeometry>
        </mxCell>
        <mxCell id="Hg_f1LFbzUgzckaS3RzL-47" value="If &lt;br&gt;parkinghours &lt;br&gt;&amp;lt;= 3" style="rhombus;whiteSpace=wrap;html=1;" parent="1" vertex="1">
          <mxGeometry x="1165" y="525" width="110" height="117.5" as="geometry" />
        </mxCell>
        <mxCell id="Hg_f1LFbzUgzckaS3RzL-66" value="" style="edgeStyle=orthogonalEdgeStyle;rounded=0;orthogonalLoop=1;jettySize=auto;html=1;" parent="1" source="Hg_f1LFbzUgzckaS3RzL-51" target="Hg_f1LFbzUgzckaS3RzL-64" edge="1">
          <mxGeometry relative="1" as="geometry">
            <Array as="points">
              <mxPoint x="1500" y="618.75" />
              <mxPoint x="1500" y="568.75" />
            </Array>
          </mxGeometry>
        </mxCell>
        <mxCell id="Hg_f1LFbzUgzckaS3RzL-51" value="parkingFee = 0" style="rounded=0;whiteSpace=wrap;html=1;" parent="1" vertex="1">
          <mxGeometry x="1350" y="588.75" width="130" height="60" as="geometry" />
        </mxCell>
        <mxCell id="Hg_f1LFbzUgzckaS3RzL-65" value="" style="edgeStyle=orthogonalEdgeStyle;rounded=0;orthogonalLoop=1;jettySize=auto;html=1;" parent="1" source="Hg_f1LFbzUgzckaS3RzL-56" target="Hg_f1LFbzUgzckaS3RzL-64" edge="1">
          <mxGeometry relative="1" as="geometry">
            <Array as="points">
              <mxPoint x="1498" y="508.75" />
              <mxPoint x="1498" y="568.75" />
            </Array>
          </mxGeometry>
        </mxCell>
        <mxCell id="Hg_f1LFbzUgzckaS3RzL-56" value="parkingFee = 0" style="rounded=0;whiteSpace=wrap;html=1;" parent="1" vertex="1">
          <mxGeometry x="1355" y="478.75" width="120" height="60" as="geometry" />
        </mxCell>
        <mxCell id="Hg_f1LFbzUgzckaS3RzL-62" value="" style="edgeStyle=orthogonalEdgeStyle;rounded=0;orthogonalLoop=1;jettySize=auto;html=1;" parent="1" source="Hg_f1LFbzUgzckaS3RzL-47" target="Hg_f1LFbzUgzckaS3RzL-61" edge="1">
          <mxGeometry relative="1" as="geometry">
            <mxPoint x="1275" y="583.75" as="sourcePoint" />
            <mxPoint x="1345" y="648.75" as="targetPoint" />
          </mxGeometry>
        </mxCell>
        <mxCell id="Hg_f1LFbzUgzckaS3RzL-61" value="" style="ellipse;whiteSpace=wrap;html=1;aspect=fixed;" parent="1" vertex="1">
          <mxGeometry x="1295" y="573.75" width="20" height="20" as="geometry" />
        </mxCell>
        <mxCell id="Hg_f1LFbzUgzckaS3RzL-64" value="Display in&lt;br&gt;&amp;nbsp;VehicleName &quot;Car&quot;" style="shape=parallelogram;perimeter=parallelogramPerimeter;whiteSpace=wrap;html=1;fixedSize=1;" parent="1" vertex="1">
          <mxGeometry x="1520" y="538.75" width="150" height="60" as="geometry" />
        </mxCell>
        <mxCell id="Hg_f1LFbzUgzckaS3RzL-67" value="" style="ellipse;whiteSpace=wrap;html=1;aspect=fixed;" parent="1" vertex="1">
          <mxGeometry x="1490" y="558.75" width="20" height="20" as="geometry" />
        </mxCell>
        <mxCell id="Hg_f1LFbzUgzckaS3RzL-84" value="" style="edgeStyle=orthogonalEdgeStyle;rounded=0;orthogonalLoop=1;jettySize=auto;html=1;" parent="1" source="Hg_f1LFbzUgzckaS3RzL-69" target="Hg_f1LFbzUgzckaS3RzL-75" edge="1">
          <mxGeometry relative="1" as="geometry" />
        </mxCell>
        <mxCell id="Hg_f1LFbzUgzckaS3RzL-85" value="TRUE" style="edgeLabel;html=1;align=center;verticalAlign=middle;resizable=0;points=[];" parent="Hg_f1LFbzUgzckaS3RzL-84" vertex="1" connectable="0">
          <mxGeometry x="-0.2545" y="4" relative="1" as="geometry">
            <mxPoint x="1" as="offset" />
          </mxGeometry>
        </mxCell>
        <mxCell id="Hg_f1LFbzUgzckaS3RzL-69" value="case &#39;c&#39;" style="rhombus;whiteSpace=wrap;html=1;" parent="1" vertex="1">
          <mxGeometry x="1012.5" y="728.75" width="95" height="90" as="geometry" />
        </mxCell>
        <mxCell id="Hg_f1LFbzUgzckaS3RzL-71" value="" style="edgeStyle=orthogonalEdgeStyle;rounded=0;orthogonalLoop=1;jettySize=auto;html=1;" parent="1" source="Hg_f1LFbzUgzckaS3RzL-81" target="Hg_f1LFbzUgzckaS3RzL-77" edge="1">
          <mxGeometry relative="1" as="geometry" />
        </mxCell>
        <mxCell id="Hg_f1LFbzUgzckaS3RzL-72" value="TRUE" style="edgeLabel;html=1;align=center;verticalAlign=middle;resizable=0;points=[];" parent="Hg_f1LFbzUgzckaS3RzL-71" vertex="1" connectable="0">
          <mxGeometry x="0.0666" y="1" relative="1" as="geometry">
            <mxPoint as="offset" />
          </mxGeometry>
        </mxCell>
        <mxCell id="Hg_f1LFbzUgzckaS3RzL-73" value="" style="edgeStyle=orthogonalEdgeStyle;rounded=0;orthogonalLoop=1;jettySize=auto;html=1;" parent="1" source="Hg_f1LFbzUgzckaS3RzL-75" target="Hg_f1LFbzUgzckaS3RzL-79" edge="1">
          <mxGeometry relative="1" as="geometry">
            <Array as="points">
              <mxPoint x="1322.5" y="773.75" />
              <mxPoint x="1322.5" y="698.75" />
            </Array>
          </mxGeometry>
        </mxCell>
        <mxCell id="Hg_f1LFbzUgzckaS3RzL-74" value="FALSE" style="edgeLabel;html=1;align=center;verticalAlign=middle;resizable=0;points=[];" parent="Hg_f1LFbzUgzckaS3RzL-73" vertex="1" connectable="0">
          <mxGeometry x="-0.1391" y="2" relative="1" as="geometry">
            <mxPoint as="offset" />
          </mxGeometry>
        </mxCell>
        <mxCell id="Hg_f1LFbzUgzckaS3RzL-75" value="If &lt;br&gt;parkinghours &lt;br&gt;&amp;lt;= 3" style="rhombus;whiteSpace=wrap;html=1;" parent="1" vertex="1">
          <mxGeometry x="1162.5" y="715" width="110" height="117.5" as="geometry" />
        </mxCell>
        <mxCell id="Hg_f1LFbzUgzckaS3RzL-76" value="" style="edgeStyle=orthogonalEdgeStyle;rounded=0;orthogonalLoop=1;jettySize=auto;html=1;" parent="1" source="Hg_f1LFbzUgzckaS3RzL-77" target="Hg_f1LFbzUgzckaS3RzL-82" edge="1">
          <mxGeometry relative="1" as="geometry">
            <Array as="points">
              <mxPoint x="1497.5" y="808.75" />
              <mxPoint x="1497.5" y="758.75" />
            </Array>
          </mxGeometry>
        </mxCell>
        <mxCell id="Hg_f1LFbzUgzckaS3RzL-77" value="parkingFee = 0" style="rounded=0;whiteSpace=wrap;html=1;" parent="1" vertex="1">
          <mxGeometry x="1347.5" y="778.75" width="130" height="60" as="geometry" />
        </mxCell>
        <mxCell id="Hg_f1LFbzUgzckaS3RzL-78" value="" style="edgeStyle=orthogonalEdgeStyle;rounded=0;orthogonalLoop=1;jettySize=auto;html=1;" parent="1" source="Hg_f1LFbzUgzckaS3RzL-79" target="Hg_f1LFbzUgzckaS3RzL-82" edge="1">
          <mxGeometry relative="1" as="geometry">
            <Array as="points">
              <mxPoint x="1495.5" y="698.75" />
              <mxPoint x="1495.5" y="758.75" />
            </Array>
          </mxGeometry>
        </mxCell>
        <mxCell id="Hg_f1LFbzUgzckaS3RzL-79" value="parkingFee = 0" style="rounded=0;whiteSpace=wrap;html=1;" parent="1" vertex="1">
          <mxGeometry x="1352.5" y="668.75" width="120" height="60" as="geometry" />
        </mxCell>
        <mxCell id="Hg_f1LFbzUgzckaS3RzL-80" value="" style="edgeStyle=orthogonalEdgeStyle;rounded=0;orthogonalLoop=1;jettySize=auto;html=1;" parent="1" source="Hg_f1LFbzUgzckaS3RzL-75" target="Hg_f1LFbzUgzckaS3RzL-81" edge="1">
          <mxGeometry relative="1" as="geometry">
            <mxPoint x="1272.5" y="773.75" as="sourcePoint" />
            <mxPoint x="1342.5" y="838.75" as="targetPoint" />
          </mxGeometry>
        </mxCell>
        <mxCell id="Hg_f1LFbzUgzckaS3RzL-81" value="" style="ellipse;whiteSpace=wrap;html=1;aspect=fixed;" parent="1" vertex="1">
          <mxGeometry x="1292.5" y="763.75" width="20" height="20" as="geometry" />
        </mxCell>
        <mxCell id="Hg_f1LFbzUgzckaS3RzL-82" value="Display in&lt;br&gt;&amp;nbsp;VehicleName &quot;Car&quot;" style="shape=parallelogram;perimeter=parallelogramPerimeter;whiteSpace=wrap;html=1;fixedSize=1;" parent="1" vertex="1">
          <mxGeometry x="1517.5" y="728.75" width="150" height="60" as="geometry" />
        </mxCell>
        <mxCell id="Hg_f1LFbzUgzckaS3RzL-83" value="" style="ellipse;whiteSpace=wrap;html=1;aspect=fixed;" parent="1" vertex="1">
          <mxGeometry x="1487.5" y="748.75" width="20" height="20" as="geometry" />
        </mxCell>
        <mxCell id="BbHm2kyEShkEgUKEUJJQ-2" value="" style="edgeStyle=orthogonalEdgeStyle;rounded=0;orthogonalLoop=1;jettySize=auto;html=1;" edge="1" parent="1" source="Hg_f1LFbzUgzckaS3RzL-5" target="BbHm2kyEShkEgUKEUJJQ-1">
          <mxGeometry relative="1" as="geometry">
            <mxPoint x="215" y="340" as="sourcePoint" />
            <mxPoint x="215" y="890" as="targetPoint" />
          </mxGeometry>
        </mxCell>
        <mxCell id="BbHm2kyEShkEgUKEUJJQ-9" value="" style="edgeStyle=orthogonalEdgeStyle;rounded=0;orthogonalLoop=1;jettySize=auto;html=1;" edge="1" parent="1" source="BbHm2kyEShkEgUKEUJJQ-1" target="BbHm2kyEShkEgUKEUJJQ-6">
          <mxGeometry relative="1" as="geometry" />
        </mxCell>
        <mxCell id="BbHm2kyEShkEgUKEUJJQ-1" value="If &lt;br&gt;MinutesIN&lt;br&gt;== 60" style="rhombus;whiteSpace=wrap;html=1;" vertex="1" parent="1">
          <mxGeometry x="160" y="381.25" width="110" height="117.5" as="geometry" />
        </mxCell>
        <mxCell id="BbHm2kyEShkEgUKEUJJQ-4" value="" style="edgeStyle=orthogonalEdgeStyle;rounded=0;orthogonalLoop=1;jettySize=auto;html=1;" edge="1" parent="1" source="BbHm2kyEShkEgUKEUJJQ-1" target="BbHm2kyEShkEgUKEUJJQ-3">
          <mxGeometry relative="1" as="geometry">
            <mxPoint x="215" y="518" as="sourcePoint" />
            <mxPoint x="215" y="890" as="targetPoint" />
          </mxGeometry>
        </mxCell>
        <mxCell id="BbHm2kyEShkEgUKEUJJQ-8" value="" style="edgeStyle=orthogonalEdgeStyle;rounded=0;orthogonalLoop=1;jettySize=auto;html=1;" edge="1" parent="1" source="BbHm2kyEShkEgUKEUJJQ-3" target="BbHm2kyEShkEgUKEUJJQ-7">
          <mxGeometry relative="1" as="geometry" />
        </mxCell>
        <mxCell id="BbHm2kyEShkEgUKEUJJQ-3" value="If outMinutes" style="rhombus;whiteSpace=wrap;html=1;" vertex="1" parent="1">
          <mxGeometry x="160" y="538.75" width="110" height="117.5" as="geometry" />
        </mxCell>
        <mxCell id="BbHm2kyEShkEgUKEUJJQ-5" value="If &lt;br&gt;parkinghours &lt;br&gt;&amp;lt;= 3" style="rhombus;whiteSpace=wrap;html=1;" vertex="1" parent="1">
          <mxGeometry x="160" y="1380" width="110" height="117.5" as="geometry" />
        </mxCell>
        <mxCell id="BbHm2kyEShkEgUKEUJJQ-6" value="inHours += &lt;br&gt;inMinutes / 60,&lt;br&gt;inMinutes %= 60" style="rounded=0;whiteSpace=wrap;html=1;" vertex="1" parent="1">
          <mxGeometry x="310" y="410" width="160" height="60" as="geometry" />
        </mxCell>
        <mxCell id="BbHm2kyEShkEgUKEUJJQ-7" value="outHours += &lt;br&gt;outMinutes / 60,&lt;br&gt;outMinutes %= 60" style="rounded=0;whiteSpace=wrap;html=1;" vertex="1" parent="1">
          <mxGeometry x="310" y="567.5" width="160" height="60" as="geometry" />
        </mxCell>
        <mxCell id="BbHm2kyEShkEgUKEUJJQ-12" value="" style="edgeStyle=orthogonalEdgeStyle;rounded=0;orthogonalLoop=1;jettySize=auto;html=1;" edge="1" parent="1" source="BbHm2kyEShkEgUKEUJJQ-11" target="Hg_f1LFbzUgzckaS3RzL-9">
          <mxGeometry relative="1" as="geometry" />
        </mxCell>
        <mxCell id="BbHm2kyEShkEgUKEUJJQ-11" value="If HourIN &amp;gt;= 24 or HoursOut &amp;gt;= 24" style="rhombus;whiteSpace=wrap;html=1;" vertex="1" parent="1">
          <mxGeometry x="141.25" y="950" width="147.5" height="147.5" as="geometry" />
        </mxCell>
        <mxCell id="BbHm2kyEShkEgUKEUJJQ-14" value="True" style="edgeStyle=orthogonalEdgeStyle;rounded=0;orthogonalLoop=1;jettySize=auto;html=1;exitX=1;exitY=0.5;exitDx=0;exitDy=0;" edge="1" parent="1" target="BbHm2kyEShkEgUKEUJJQ-16" source="BbHm2kyEShkEgUKEUJJQ-11">
          <mxGeometry relative="1" as="geometry">
            <mxPoint x="310" y="1020" as="sourcePoint" />
          </mxGeometry>
        </mxCell>
        <mxCell id="BbHm2kyEShkEgUKEUJJQ-15" value="" style="edgeStyle=orthogonalEdgeStyle;rounded=0;orthogonalLoop=1;jettySize=auto;html=1;" edge="1" parent="1" source="BbHm2kyEShkEgUKEUJJQ-16" target="BbHm2kyEShkEgUKEUJJQ-17">
          <mxGeometry relative="1" as="geometry" />
        </mxCell>
        <mxCell id="BbHm2kyEShkEgUKEUJJQ-16" value="&quot;You are getting towed&quot;" style="shape=parallelogram;perimeter=parallelogramPerimeter;whiteSpace=wrap;html=1;fixedSize=1;" vertex="1" parent="1">
          <mxGeometry x="355" y="983.75" width="155" height="80" as="geometry" />
        </mxCell>
        <mxCell id="BbHm2kyEShkEgUKEUJJQ-17" value="Return 1" style="strokeWidth=2;html=1;shape=mxgraph.flowchart.terminator;whiteSpace=wrap;" vertex="1" parent="1">
          <mxGeometry x="382.5" y="1100" width="100" height="60" as="geometry" />
        </mxCell>
      </root>
    </mxGraphModel>
  </diagram>
</mxfile>
